<?xml version="1.0" encoding="UTF-8"?>
<svg width="2224px" height="553px" viewBox="0 0 2224 553" version="1.1" xmlns="http://www.w3.org/2000/svg" xmlns:xlink="http://www.w3.org/1999/xlink">
    <!-- Generator: Sketch 47.1 (45422) - http://www.bohemiancoding.com/sketch -->
    <title>EatWithMe</title>
    <desc>Created with Sketch.</desc>
    <defs></defs>
    <g id="Page-1" stroke="none" stroke-width="1" fill="none" fill-rule="evenodd">
        <g id="EatWithMe" fill="#FFFFFF">
            <g id="Group">
                <path d="M748.752,164.096 L883.824,164.096 L883.824,196.928 L785.04,196.928 L785.04,247.04 L878.64,247.04 L878.64,279.872 L785.04,279.872 L785.04,335.168 L889.008,335.168 L889.008,368 L748.752,368 L748.752,164.096 Z M1007.952,348.992 L1007.088,348.992 C1002.09598,356.864039 995.760038,362.575982 988.08,366.128 C980.399962,369.680018 971.952046,371.456 962.736,371.456 C956.399968,371.456 950.20803,370.592009 944.16,368.864 C938.11197,367.135991 932.736024,364.544017 928.032,361.088 C923.327976,357.631983 919.536014,353.312026 916.656,348.128 C913.775986,342.943974 912.336,336.896035 912.336,329.984 C912.336,322.495963 913.679987,316.112026 916.368,310.832 C919.056013,305.551974 922.655977,301.136018 927.168,297.584 C931.680023,294.031982 936.91197,291.200011 942.864,289.088 C948.81603,286.975989 955.007968,285.392005 961.44,284.336 C967.872032,283.279995 974.351967,282.608001 980.88,282.32 C987.408033,282.031999 993.551971,281.888 999.312,281.888 L1007.952,281.888 L1007.952,278.144 C1007.952,269.503957 1004.97603,263.024022 999.024,258.704 C993.07197,254.383978 985.488046,252.224 976.272,252.224 C968.975964,252.224 962.160032,253.519987 955.824,256.112 C949.487968,258.704013 944.016023,262.207978 939.408,266.624 L921.264,248.48 C928.944038,240.607961 937.919949,234.944017 948.192,231.488 C958.464051,228.031983 969.071945,226.304 980.016,226.304 C989.808049,226.304 998.063966,227.407989 1004.784,229.616 C1011.50403,231.824011 1017.07198,234.655983 1021.488,238.112 C1025.90402,241.568017 1029.31199,245.551977 1031.712,250.064 C1034.11201,254.576023 1035.83999,259.135977 1036.896,263.744 C1037.95201,268.352023 1038.576,272.815978 1038.768,277.136 C1038.96,281.456022 1039.056,285.247984 1039.056,288.512 L1039.056,368 L1007.952,368 L1007.952,348.992 Z M1005.936,306.08 L998.736,306.08 C993.935976,306.08 988.56003,306.271998 982.608,306.656 C976.65597,307.040002 971.040026,307.951993 965.76,309.392 C960.479974,310.832007 956.016018,312.943986 952.368,315.728 C948.719982,318.512014 946.896,322.399975 946.896,327.392 C946.896,330.656016 947.615993,333.391989 949.056,335.6 C950.496007,337.808011 952.367988,339.679992 954.672,341.216 C956.976012,342.752008 959.567986,343.855997 962.448,344.528 C965.328014,345.200003 968.207986,345.536 971.088,345.536 C982.99206,345.536 991.775972,342.704028 997.44,337.04 C1003.10403,331.375972 1005.936,323.648049 1005.936,313.856 L1005.936,306.08 Z M1060.08,259.136 L1060.08,229.76 L1088.592,229.76 L1088.592,189.728 L1123.152,189.728 L1123.152,229.76 L1161.168,229.76 L1161.168,259.136 L1123.152,259.136 L1123.152,319.616 C1123.152,326.528035 1124.44799,331.99998 1127.04,336.032 C1129.63201,340.06402 1134.76796,342.08 1142.448,342.08 C1145.52002,342.08 1148.87998,341.744003 1152.528,341.072 C1156.17602,340.399997 1159.05599,339.296008 1161.168,337.76 L1161.168,366.848 C1157.51998,368.576009 1153.05603,369.775997 1147.776,370.448 C1142.49597,371.120003 1137.84002,371.456 1133.808,371.456 C1124.59195,371.456 1117.05603,370.44801 1111.2,368.432 C1105.34397,366.41599 1100.73602,363.344021 1097.376,359.216 C1094.01598,355.087979 1091.71201,349.952031 1090.464,343.808 C1089.21599,337.663969 1088.592,330.56004 1088.592,322.496 L1088.592,259.136 L1060.08,259.136 Z M1168.656,164.096 L1208.4,164.096 L1246.704,310.976 L1247.28,310.976 L1293.072,164.096 L1328.784,164.096 L1373.712,310.976 L1374.288,310.976 L1414.32,164.096 L1451.184,164.096 L1391.856,368 L1357.296,368 L1310.064,212.768 L1309.488,212.768 L1262.256,368 L1228.848,368 L1168.656,164.096 Z M1471.344,229.76 L1505.904,229.76 L1505.904,368 L1471.344,368 L1471.344,229.76 Z M1466.448,182.816 C1466.448,177.247972 1468.51198,172.400021 1472.64,168.272 C1476.76802,164.143979 1481.99997,162.08 1488.336,162.08 C1494.67203,162.08 1499.99998,164.04798 1504.32,167.984 C1508.64002,171.92002 1510.8,176.86397 1510.8,182.816 C1510.8,188.76803 1508.64002,193.71198 1504.32,197.648 C1499.99998,201.58402 1494.67203,203.552 1488.336,203.552 C1481.99997,203.552 1476.76802,201.488021 1472.64,197.36 C1468.51198,193.231979 1466.448,188.384028 1466.448,182.816 Z M1529.52,259.136 L1529.52,229.76 L1558.032,229.76 L1558.032,189.728 L1592.592,189.728 L1592.592,229.76 L1630.608,229.76 L1630.608,259.136 L1592.592,259.136 L1592.592,319.616 C1592.592,326.528035 1593.88799,331.99998 1596.48,336.032 C1599.07201,340.06402 1604.20796,342.08 1611.888,342.08 C1614.96002,342.08 1618.31998,341.744003 1621.968,341.072 C1625.61602,340.399997 1628.49599,339.296008 1630.608,337.76 L1630.608,366.848 C1626.95998,368.576009 1622.49603,369.775997 1617.216,370.448 C1611.93597,371.120003 1607.28002,371.456 1603.248,371.456 C1594.03195,371.456 1586.49603,370.44801 1580.64,368.432 C1574.78397,366.41599 1570.17602,363.344021 1566.816,359.216 C1563.45598,355.087979 1561.15201,349.952031 1559.904,343.808 C1558.65599,337.663969 1558.032,330.56004 1558.032,322.496 L1558.032,259.136 L1529.52,259.136 Z M1692.528,249.056 L1693.104,249.056 C1695.79201,243.295971 1700.54397,238.064024 1707.36,233.36 C1714.17603,228.655976 1722.95995,226.304 1733.712,226.304 C1742.92805,226.304 1750.75197,227.839985 1757.184,230.912 C1763.61603,233.984015 1768.84798,238.015975 1772.88,243.008 C1776.91202,248.000025 1779.79199,253.759967 1781.52,260.288 C1783.24801,266.816033 1784.112,273.631964 1784.112,280.736 L1784.112,368 L1749.552,368 L1749.552,298.016 C1749.552,294.175981 1749.36,289.904024 1748.976,285.2 C1748.592,280.495976 1747.58401,276.080021 1745.952,271.952 C1744.31999,267.823979 1741.77602,264.368014 1738.32,261.584 C1734.86398,258.799986 1730.16003,257.408 1724.208,257.408 C1718.44797,257.408 1713.60002,258.36799 1709.664,260.288 C1705.72798,262.20801 1702.46401,264.799984 1699.872,268.064 C1697.27999,271.328016 1695.40801,275.071979 1694.256,279.296 C1693.10399,283.520021 1692.528,287.935977 1692.528,292.544 L1692.528,368 L1657.968,368 L1657.968,150.272 L1692.528,150.272 L1692.528,249.056 Z M1827.312,164.096 L1882.608,164.096 L1937.04,306.944 L1992.048,164.096 L2046.768,164.096 L2046.768,368 L2012.208,368 L2012.208,198.656 L2011.632,198.656 L1949.712,368 L1924.368,368 L1862.448,198.656 L1861.872,198.656 L1861.872,368 L1827.312,368 L1827.312,164.096 Z M2117.616,310.976 C2118.76801,321.344052 2122.79997,329.407971 2129.712,335.168 C2136.62403,340.928029 2144.97595,343.808 2154.768,343.808 C2163.40804,343.808 2170.65597,342.032018 2176.512,338.48 C2182.36803,334.927982 2187.50398,330.464027 2191.92,325.088 L2216.688,343.808 C2208.62396,353.79205 2199.60005,360.895979 2189.616,365.12 C2179.63195,369.344021 2169.16805,371.456 2158.224,371.456 C2147.85595,371.456 2138.06405,369.728017 2128.848,366.272 C2119.63195,362.815983 2111.66403,357.920032 2104.944,351.584 C2098.22397,345.247968 2092.89602,337.616045 2088.96,328.688 C2085.02398,319.759955 2083.056,309.824055 2083.056,298.88 C2083.056,287.935945 2085.02398,278.000045 2088.96,269.072 C2092.89602,260.143955 2098.22397,252.512032 2104.944,246.176 C2111.66403,239.839968 2119.63195,234.944017 2128.848,231.488 C2138.06405,228.031983 2147.85595,226.304 2158.224,226.304 C2167.82405,226.304 2176.60796,227.983983 2184.576,231.344 C2192.54404,234.704017 2199.35997,239.551968 2205.024,245.888 C2210.68803,252.224032 2215.10398,260.047953 2218.272,269.36 C2221.44002,278.672047 2223.024,289.37594 2223.024,301.472 L2223.024,310.976 L2117.616,310.976 Z M2188.464,285.056 C2188.272,274.879949 2185.10403,266.864029 2178.96,261.008 C2172.81597,255.151971 2164.27205,252.224 2153.328,252.224 C2142.95995,252.224 2134.75203,255.19997 2128.704,261.152 C2122.65597,267.10403 2118.96001,275.07195 2117.616,285.056 L2188.464,285.056 Z" id="EatWithMe"></path>
                <g id="logo" fill-rule="nonzero">
                    <path d="M311.209383,553 L493,553 C526.137085,553 553,526.137085 553,493 L553,60 C553,26.862915 526.137085,0 493,0 L60,0 C26.862915,0 0,26.862915 0,60 L0,493 C0,526.137085 26.862915,553 60,553 L241.564023,553 L255.75673,317.221388 C221.537712,306.59428 196.319456,270.182524 196.319456,226.880718 L196.319456,110.63661 C196.320163,101.877677 203.420929,94.77691 212.179861,94.776204 C220.939501,94.776204 228.040267,101.87697 228.040267,110.636609 L228.040267,210.637064 C228.040267,219.608834 235.312153,226.880721 244.283924,226.880721 C253.255694,226.880721 260.527581,219.608834 260.527581,210.637063 L260.527581,110.636607 C260.527581,101.876967 267.628347,94.776202 276.387279,94.776909 C285.146919,94.776909 292.247684,101.877674 292.246977,110.636606 L292.246977,210.637061 C292.246977,219.607417 299.51957,226.880011 308.490634,226.880718 C317.461697,226.88001 324.733584,219.608124 324.734291,210.63706 L324.734291,111.083496 C324.734998,102.543768 331.296949,95.195514 339.827485,94.793876 C348.93502,94.365371 356.453687,101.622406 356.454395,110.635898 L356.454395,226.88001 C356.454395,270.181815 331.236138,306.59357 297.017119,317.22068 L311.209383,553 Z" id="Shape"></path>
                </g>
            </g>
        </g>
    </g>
</svg>