<svg width="553" height="553" viewBox="0 0 553 553" xmlns="http://www.w3.org/2000/svg"><path d="M311.209383 553H493c33.137085 0 60-26.862915 60-60V60c0-33.137085-26.862915-60-60-60H60C26.862915 0 0 26.862915 0 60v433c0 33.137085 26.862915 60 60 60h181.564023l14.192707-235.778612c-34.219018-10.627108-59.437274-47.038864-59.437274-90.34067V110.63661c.000707-8.758933 7.101473-15.8597 15.860405-15.860406 8.75964 0 15.860406 7.100766 15.860406 15.860405v100.000455c0 8.97177 7.271886 16.243657 16.243657 16.243657 8.97177 0 16.243657-7.271887 16.243657-16.243658V110.636607c0-8.75964 7.100766-15.860405 15.859698-15.859698 8.75964 0 15.860405 7.100765 15.859698 15.859697v100.000455c0 8.970356 7.272593 16.24295 16.243657 16.243657 8.971063-.000708 16.24295-7.272594 16.243657-16.243658v-99.553564c.000707-8.539728 6.562658-15.887982 15.093194-16.28962 9.107535-.428505 16.626202 6.82853 16.62691 15.842022v116.244112c0 43.301805-25.218257 79.71356-59.437276 90.34067L311.209383 553z" fill="#FFF" fill-rule="evenodd"/></svg>