<svg width="18" height="18" viewBox="0 0 18 18" xmlns="http://www.w3.org/2000/svg" xmlns:xlink="http://www.w3.org/1999/xlink"><defs><path d="M12.2956667 12.16h1.3026666c.1843334 0 .3333334-.149.3333334-.3333333 0-.1843334-.149-.3333334-.3333334-.3333334h-1.3026666V10.193c0-.1843333-.149-.33333333-.3333334-.33333333-.1843333 0-.3333333.14900003-.3333333.33333333v1.3003333h-1.3016667c-.1843333 0-.3333333.149-.3333333.3333334 0 .1843333.149.3333333.3333333.3333333H11.629v1.3013333c0 .1843334.149.3333334.3333333.3333334.184 0 .3333334-.149.3333334-.3333334V12.16zm-4.0939425 1.1386667H.33333333c-.184 0-.33333333-.149-.33333333-.3333334 0-3.58266663 2.95266667-6.49766663 6.58233333-6.49766663 1.53019442 0 3.0118519.53054816 4.19549517 1.49845565.3751316-.11535.773369-.17745565 1.1858382-.17745565C14.189 7.78833333 16 9.59966667 16 11.8263333 16 14.0536667 14.189 15.866 11.9636667 15.866c-1.7083577 0-3.1722585-1.065848-3.7619425-2.5673333zM6.58233333 5.9c-1.60966666 0-2.919-1.293-2.919-2.88233333 0-1.59033334 1.30933334-2.884 2.919-2.884 1.61 0 2.91966667 1.29366666 2.91966667 2.884C9.502 4.607 8.19233333 5.9 6.58233333 5.9z" id="a"/></defs><g transform="translate(1 1)" fill-rule="nonzero" ><use fill-rule="evenodd" xlink:href="#a"/><path stroke="#1f2749" d="M11.129 12.66v-.5l.5.5h-.5zm1 .8013333c0-.091809-.0748576-.1666666-.1666667-.1666666-.0919499 0-.1666666.0746651-.1666666.1666666v-1.468h-1.4683334c.0918091 0 .1666667-.0748576.1666667-.1666666 0-.0918091-.0748576-.1666667-.1666667-.1666667h1.4683334v-1.467c0 .091809.0748576.1666667.1666666.1666667.0918091 0 .1666667-.0748577.1666667-.1666667v1.467h1.4693333c-.091809 0-.1666666.0748576-.1666666.1666667 0 .091809.0748576.1666666.1666666.1666666h-1.8026666zm-4.25394033.3373334H.33333333C-.12684693 13.7986667-.5 13.4257713-.5 12.9653333c0-3.86037248 3.17806853-6.99766663 7.08233333-6.99766663 1.55698837 0 3.06871553.51075535 4.30650757 1.4495265.349169-.08505074.7093323-.1285265 1.0747509-.1285265C14.4652368 7.28829195 16.5 9.32363513 16.5 11.8263333c0 2.5033305-2.0347123 4.5396667-4.5363333 4.5396667-1.7633888 0-3.3402564-1.0194998-4.08860703-2.5673333zM6.58233333 6.4c-1.88436738 0-3.419-1.51539678-3.419-3.38233333 0-1.86784525 1.53454265-3.384 3.419-3.384 1.88477642 0 3.41966667 1.51613962 3.41966667 3.384C10.002 4.88461837 8.4670198 6.4 6.58233333 6.4z"/></g></svg>