<svg xmlns="http://www.w3.org/2000/svg" viewBox="0 0 50 50" width="100" height="100"><path d="M25.906 3.281c-9.34.211-10.398 7.035-8.406 14.906-.313.211-.95.961-.844 2.22.313 2.308 1.258 2.937 1.782 2.937.21 1.574.953 3.23 1.687 4.281.523.734.719 1.68.719 2.625 0 .84.011.305-.094 1.25a3.395 3.395 0 0 1-.438.844C20.527 33.152 21.767 37 26 37c4.336 0 5.5-4.152 5.625-4.656a3.427 3.427 0 0 1-.469-.844c-.105-1.152-.125-.617-.125-1.563 0-.84.328-1.558.75-2.187.735-1.05 1.446-2.832 1.657-4.406.632 0 1.57-.63 1.78-2.938.106-1.258-.39-2.008-.812-2.218 1.051-2.938 3.028-12.055-3.687-13-.735-1.258-2.504-1.907-4.813-1.907zm7.375 30.469C32.441 35.984 30.22 39 26 39c-4.223 0-6.438-2.96-7.313-5.219C14.532 36.34 6.063 37.125 6.063 46h39.876c0-9.102-8.43-9.727-12.657-12.25z"/></svg>