<svg xmlns="http://www.w3.org/2000/svg" viewBox="0 0 350 350"><path d="M175 171.173c38.914 0 70.463-38.318 70.463-85.586C245.463 38.317 235.105 0 175 0s-70.465 38.318-70.465 85.587c0 47.268 31.55 85.586 70.465 85.586zM41.91 301.853c-.013-2.882-.025-.812 0 0zM308.085 304.104c.038-.79.013-5.474 0 0z"/><path d="M307.935 298.397c-1.305-82.342-12.06-105.805-94.352-120.657 0 0-11.584 14.76-38.584 14.76s-38.587-14.76-38.587-14.76C55.018 192.43 43.61 215.545 42.11 295.722c-.123 6.547-.18 6.89-.202 6.13.005 1.425.01 4.06.01 8.652 0 0 19.593 39.496 133.08 39.496 113.487 0 133.08-39.496 133.08-39.496 0-2.95.003-5.003.006-6.4-.022.47-.066-.44-.15-5.707z"/></svg>