<svg width="16" height="16" viewBox="0 0 38 48">
    <clipPath id="clip">
        <g>
            <path d="M12.978 12.67c-3.782 0-8.847-1.635-11.493-9.425-.174-.512.09-1.069.597-1.258C2.221 1.935 5.529.715 9.265.715c6.193 0 9.922 3.405 10.498 9.588.038.413-.182.806-.553.989-.115.057-2.829 1.378-6.232 1.378zM19.002 48C8.907 48 .695 40.233.695 30.688c0-9.547 8.212-17.314 18.307-17.314 4.88 0 9.47 1.794 12.923 5.051 3.47 3.272 5.38 7.627 5.38 12.263C37.305 40.233 29.094 48 19.002 48z"/>
            <path d="M19.789 15.438c-.473 0-.894-.336-.982-.818-.083-.452-1.954-11.106 5.902-14.536.512-.22 1.097.012 1.316.517.222.506-.01 1.095-.516 1.316-6.418 2.802-4.754 12.245-4.736 12.34.101.543-.259 1.064-.802 1.165-.061.011-.121.016-.182.016z"/>
        </g>
    </clipPath>
</svg>