<svg xmlns="http://www.w3.org/2000/svg" width="16" height="16" viewBox="0 0 48 48"><path d="M18.697 33.943c-6.6 0-11.968-5.368-11.968-11.967s5.368-11.968 11.967-11.968 11.968 5.37 11.968 11.968-5.37 11.967-11.968 11.967zm0-21.935c-5.496 0-9.968 4.472-9.968 9.968 0 5.496 4.47 9.967 9.967 9.967 5.497 0 9.968-4.472 9.968-9.967 0-5.497-4.472-9.968-9.968-9.968zM38.69 20.334c-.552 0-1-.448-1-1v-7.69c0-.552.448-1 1-1s1 .448 1 1v7.69c0 .552-.446 1-1 1zM37.245 48C31.375 48 26.6 43.224 26.6 37.354c0-5.868 4.775-10.643 10.646-10.643 5.87.002 10.644 4.776 10.644 10.644C47.89 43.224 43.114 48 37.245 48zm0-19.29c-4.768 0-8.646 3.878-8.646 8.644 0 4.768 3.877 8.646 8.645 8.646 4.766 0 8.644-3.88 8.644-8.646 0-4.765-3.88-8.642-8.645-8.643z"/><path d="M28.694 38.665H7.167c-3.89 0-7.055-3.163-7.055-7.052v-19.38c0-3.887 3.165-7.048 7.055-7.048h1.928v-1.16C9.095 1.805 10.9 0 13.117 0h11.91c2.22 0 4.024 1.806 4.024 4.025v1.16H40.84c3.888 0 7.05 3.16 7.05 7.047v19.38c0 1.01-.227 2.01-.674 2.97l-1.03 2.217-.818-2.307c-1.226-3.458-4.49-5.782-8.12-5.782-4.768 0-8.646 3.878-8.646 8.644.02.09.03.173.035.256l.06 1.055zM7.167 7.185c-2.788 0-5.055 2.264-5.055 5.047v19.38c0 2.786 2.268 5.053 5.055 5.053h19.455c.355-5.55 4.985-9.954 10.624-9.954 3.477 0 6.68 1.727 8.643 4.49V12.233c0-2.783-2.267-5.047-5.05-5.047H27.05v-3.16c0-1.117-.908-2.025-2.025-2.025h-11.91c-1.115 0-2.022.908-2.022 2.025v3.16H7.167z"/><path d="M37.17 42.695c-.552 0-1-.447-1-1v-6.16c0-.554.448-1 1-1s1 .446 1 1v6.16c0 .553-.446 1-1 1z"/><path d="M33.697 37.99c-.234 0-.47-.082-.658-.248-.417-.364-.46-.995-.096-1.41l4.21-4.816 4.375 4.8c.37.408.342 1.04-.066 1.413-.41.372-1.04.34-1.413-.066l-2.863-3.144-2.736 3.128c-.198.226-.474.34-.753.34z"/></svg>