<?xml version="1.0" encoding="UTF-8"?>
<svg width="18px" height="18px" viewBox="0 0 18 18" version="1.1" xmlns="http://www.w3.org/2000/svg" xmlns:xlink="http://www.w3.org/1999/xlink">
    <!-- Generator: Sketch 47.1 (45422) - http://www.bohemiancoding.com/sketch -->
    <title>Combined Shape</title>
    <desc>Created with Sketch.</desc>
    <defs></defs>
    <g id="Page-1" stroke="none" stroke-width="1" fill="none" fill-rule="evenodd">
        <g id="Desktop" transform="translate(-667.000000, -228.000000)" stroke="#FFFFFF" fill-rule="nonzero" fill="#27CF7B">
            <g id="Group-Copy" transform="translate(655.000000, 226.000000)">
                <path d="M21.0013333,19 C16.5893333,19 13,15.411 13,11 C13,6.589 16.5893333,3 21.0013333,3 C25.412,3 29.0006667,6.589 29.0006667,11 C29.0006667,15.411 25.412,19 21.0013333,19 Z M20.1463476,13.7522204 C20.2116545,13.7453564 20.2752721,13.7192301 20.328145,13.6737877 L25.7918736,8.99370123 C25.9317688,8.87375445 25.9478884,8.66358483 25.8282732,8.52365482 C25.70796,8.38346298 25.4974241,8.36704671 25.3582267,8.48725531 L20.1208222,12.9736233 L17.2890774,10.334162 C17.1542456,10.2089029 16.9434618,10.2156394 16.817906,10.3508375 C16.6926469,10.4856692 16.6997149,10.6964183 16.8345815,10.8220089 L19.8840736,13.6644882 C19.9569235,13.7325797 20.053194,13.7620112 20.1463476,13.7522204 Z" id="Combined-Shape"></path>
            </g>
        </g>
    </g>
</svg>