<?xml version="1.0" encoding="UTF-8"?>
<svg width="18px" height="18px" viewBox="0 0 18 18" version="1.1" xmlns="http://www.w3.org/2000/svg" xmlns:xlink="http://www.w3.org/1999/xlink">
    <!-- Generator: Sketch 47.1 (45422) - http://www.bohemiancoding.com/sketch -->
    <title>Combined Shape</title>
    <desc>Created with Sketch.</desc>
    <defs>
        <path d="M13.3333661,31 C13.244033,31 13.1566998,30.9638361 13.0923666,30.895564 C12.9990335,30.7965357 12.9740336,30.6505281 13.0283668,30.5251373 L14.8190297,26.4146177 C14.187031,25.2695395 13.8536984,23.9818335 13.8536984,22.6782425 C13.8536984,18.4443599 17.2506913,15 21.4263492,15 C25.6026738,15.000338 29,18.4446979 29,22.6782425 C29,26.9114491 25.6026738,30.355809 21.4263492,30.355809 C20.1026853,30.355809 18.7983547,29.9978876 17.6436904,29.3202366 L13.4543659,30.9770173 C13.4150326,30.9922264 13.3740327,31 13.3333661,31 Z M24.534676,20.234305 C24.7186756,20.234305 24.8680087,20.0828897 24.8680087,19.8963245 C24.8680087,19.7097592 24.719009,19.5583439 24.534676,19.5583439 L17.8066901,19.5583439 C17.6226905,19.5583439 17.4733575,19.7097592 17.4733575,19.8963245 C17.4733575,20.0828897 17.6226905,20.234305 17.8066901,20.234305 L24.534676,20.234305 Z M24.534676,23.0973384 C24.7186756,23.0973384 24.8680087,22.9459231 24.8680087,22.7593578 C24.8680087,22.5727926 24.719009,22.4213773 24.534676,22.4213773 L17.8066901,22.4213773 C17.6226905,22.4213773 17.4733575,22.5727926 17.4733575,22.7593578 C17.4733575,22.9459231 17.6226905,23.0973384 17.8066901,23.0973384 L24.534676,23.0973384 Z M24.534676,25.9620617 C24.7186756,25.9620617 24.8680087,25.8109844 24.8680087,25.6240811 C24.8680087,25.4371779 24.719009,25.2861005 24.534676,25.2861005 L17.8066901,25.2861005 C17.6226905,25.2861005 17.4733575,25.4371779 17.4733575,25.6240811 C17.4733575,25.8109844 17.6226905,25.9620617 17.8066901,25.9620617 L24.534676,25.9620617 Z" id="path-1"></path>
    </defs>
    <g id="Page-1" stroke="none" stroke-width="1" fill="none" fill-rule="evenodd">
        <g id="Desktop" transform="translate(-667.000000, -158.000000)" fill-rule="nonzero">
            <g id="Group" transform="translate(655.000000, 144.000000)">
                <g id="Combined-Shape">
                    <use fill="#D0021B" fill-rule="evenodd" xlink:href="#path-1"></use>
                    <path stroke="#FFFFFF" stroke-width="1" d="M14.2641933,26.4363168 C13.6670413,25.2728273 13.3536984,23.9827797 13.3536984,22.6782425 C13.3536984,18.1697555 16.9729872,14.5 21.4263897,14.5 C25.8803397,14.5003604 29.5,18.1700466 29.5,22.6782425 C29.5,27.1862186 25.8802141,30.855809 21.4263492,30.855809 C20.0958919,30.855809 18.7832576,30.517247 17.6052798,29.8731069 L13.6346913,31.4433678 C13.5383532,31.4806192 13.4362702,31.5 13.3333661,31.5 C13.1053606,31.5 12.886675,31.4063536 12.7285052,31.2384996 C12.4978601,30.9937806 12.4359757,30.6346876 12.5699738,30.3254479 L14.2641933,26.4363168 Z M24.534676,19.734305 C24.4409716,19.734305 24.3680087,19.8082853 24.3680087,19.8963245 C24.3680087,19.9841707 24.4411113,20.0583439 24.534676,20.0583439 L17.8066901,20.0583439 C17.9003946,20.0583439 17.9733575,19.9843636 17.9733575,19.8963245 C17.9733575,19.8082853 17.9003946,19.734305 17.8066901,19.734305 L24.534676,19.734305 Z M24.534676,22.5973384 C24.4409716,22.5973384 24.3680087,22.6713187 24.3680087,22.7593578 C24.3680087,22.8472041 24.4411113,22.9213773 24.534676,22.9213773 L17.8066901,22.9213773 C17.9003946,22.9213773 17.9733575,22.847397 17.9733575,22.7593578 C17.9733575,22.6713187 17.9003946,22.5973384 17.8066901,22.5973384 L24.534676,22.5973384 Z M24.534676,25.4620617 L17.8066901,25.4620617 C17.9002009,25.4620617 17.9733575,25.5361871 17.9733575,25.6240811 C17.9733575,25.7119751 17.9002009,25.7861005 17.8066901,25.7861005 L24.534676,25.7861005 C24.4413049,25.7861005 24.3680087,25.7117823 24.3680087,25.6240811 C24.3680087,25.5361871 24.4411652,25.4620617 24.534676,25.4620617 Z"></path>
                </g>
            </g>
        </g>
    </g>
</svg>