<?xml version="1.0" encoding="UTF-8"?>
<svg width="13px" height="18px" viewBox="0 0 13 18" version="1.1" xmlns="http://www.w3.org/2000/svg" xmlns:xlink="http://www.w3.org/1999/xlink">
    <!-- Generator: Sketch 47.1 (45422) - http://www.bohemiancoding.com/sketch -->
    <title>Combined Shape</title>
    <desc>Created with Sketch.</desc>
    <defs>
        <path d="M6.84133333,6.65233333 L8.70966667,6.65233333 C8.894,6.65233333 9.043,6.503 9.043,6.319 C9.043,6.135 8.894,5.98566667 8.70966667,5.98566667 L6.84133333,5.98566667 L6.84133333,4.118 C6.84133333,3.934 6.69233333,3.78466667 6.508,3.78466667 C6.324,3.78466667 6.17466667,3.934 6.17466667,4.118 L6.17466667,5.98566667 L4.30533333,5.98566667 C4.12133333,5.98566667 3.972,6.135 3.972,6.319 C3.972,6.503 4.12133333,6.65233333 4.30533333,6.65233333 L6.17466667,6.65233333 L6.17466667,8.52166667 C6.17466667,8.70566667 6.324,8.855 6.508,8.855 C6.69233333,8.855 6.84133333,8.70566667 6.84133333,8.52166667 L6.84133333,6.65233333 Z M6.508,17 C6.4,17 6.29866667,16.9476667 6.236,16.8593333 C6.02233333,16.558 1,9.439 1,6.50933333 C1,3.47166667 3.471,1 6.508,1 C9.545,1 12.0156667,3.47166667 12.0156667,6.50933333 C12.0156667,9.43933333 6.99366667,16.558 6.77966667,16.8593333 C6.71733333,16.9476667 6.616,17 6.508,17 Z" id="path-1"></path>
    </defs>
    <g id="Page-1" stroke="none" stroke-width="1" fill="none" fill-rule="evenodd">
        <g id="Combined-Shape" fill-rule="nonzero">
            <use fill="#9013FE" fill-rule="evenodd" xlink:href="#path-1"></use>
            <path stroke="#FFFFFF" stroke-width="1" d="M5.67466667,7.15233333 L5.67466667,6.65233333 L6.17466667,7.15233333 L5.67466667,7.15233333 Z M6.67466667,8.52166667 C6.67466667,8.42952429 6.60014237,8.355 6.508,8.355 C6.4159985,8.355 6.34133333,8.42971677 6.34133333,8.52166667 L6.34133333,6.48566667 L4.30533333,6.48566667 C4.39747571,6.48566667 4.472,6.41114237 4.472,6.319 C4.472,6.22685763 4.39747571,6.15233333 4.30533333,6.15233333 L6.34133333,6.15233333 L6.34133333,4.118 C6.34133333,4.2099499 6.4159985,4.28466667 6.508,4.28466667 C6.60014237,4.28466667 6.67466667,4.21014237 6.67466667,4.118 L6.67466667,6.15233333 L8.70966667,6.15233333 C8.61766517,6.15233333 8.543,6.2270501 8.543,6.319 C8.543,6.4109499 8.61766517,6.48566667 8.70966667,6.48566667 L6.34133333,6.48566667 Z M6.508,17.5 C6.23786015,17.5 5.98457165,17.3690589 5.82812968,17.1485423 C5.62133755,16.8569041 5.29993332,16.3899663 4.9109942,15.8032798 C4.29025432,14.8669385 3.67608413,13.8927236 3.10671873,12.9231465 C1.46980204,10.1356277 0.5,7.9184184 0.5,6.50933333 C0.5,3.19552869 3.19485321,0.5 6.508,0.5 C9.82109271,0.5 12.5156667,3.19547459 12.5156667,6.50933333 C12.5156667,7.91857363 11.5458792,10.1359034 9.90907442,12.923269 C9.33967954,13.8929092 8.72543719,14.8672215 8.10480474,15.8033392 C7.715372,16.3907318 7.38761158,16.8668175 7.18819332,17.1476144 C7.0321609,17.3687299 6.77846265,17.5 6.508,17.5 Z"></path>
        </g>
    </g>
</svg>