<?xml version="1.0" encoding="UTF-8"?>
<svg width="18px" height="18px" viewBox="0 0 18 18" version="1.1" xmlns="http://www.w3.org/2000/svg" xmlns:xlink="http://www.w3.org/1999/xlink">
    <!-- Generator: Sketch 47.1 (45422) - http://www.bohemiancoding.com/sketch -->
    <title>345</title>
    <desc>Created with Sketch.</desc>
    <defs>
        <path d="M12.2956667,12.16 L13.5983333,12.16 C13.7826667,12.16 13.9316667,12.011 13.9316667,11.8266667 C13.9316667,11.6423333 13.7826667,11.4933333 13.5983333,11.4933333 L12.2956667,11.4933333 L12.2956667,10.193 C12.2956667,10.0086667 12.1466667,9.85966667 11.9623333,9.85966667 C11.778,9.85966667 11.629,10.0086667 11.629,10.193 L11.629,11.4933333 L10.3273333,11.4933333 C10.143,11.4933333 9.994,11.6423333 9.994,11.8266667 C9.994,12.011 10.143,12.16 10.3273333,12.16 L11.629,12.16 L11.629,13.4613333 C11.629,13.6456667 11.778,13.7946667 11.9623333,13.7946667 C12.1463333,13.7946667 12.2956667,13.6456667 12.2956667,13.4613333 L12.2956667,12.16 Z M8.2017242,13.2986667 L0.333333333,13.2986667 C0.149333333,13.2986667 0,13.1496667 0,12.9653333 C0,9.38266667 2.95266667,6.46766667 6.58233333,6.46766667 C8.11252775,6.46766667 9.59418524,6.99821483 10.7778285,7.96612232 C11.1529601,7.85077231 11.5511975,7.78866667 11.9636667,7.78866667 C14.189,7.78833333 16,9.59966667 16,11.8263333 C16,14.0536667 14.189,15.866 11.9636667,15.866 C10.255309,15.866 8.7914082,14.800152 8.2017242,13.2986667 Z M6.58233333,5.9 C4.97266667,5.9 3.66333333,4.607 3.66333333,3.01766667 C3.66333333,1.42733333 4.97266667,0.133666667 6.58233333,0.133666667 C8.19233333,0.133666667 9.502,1.42733333 9.502,3.01766667 C9.502,4.607 8.19233333,5.9 6.58233333,5.9 Z" id="path-1"></path>
    </defs>
    <g id="Page-1" stroke="none" stroke-width="1" fill="none" fill-rule="evenodd">
        <g id="Desktop" transform="translate(-667.000000, -416.000000)" fill-rule="nonzero">
            <g id="345" transform="translate(668.000000, 417.000000)">
                <g id="Combined-Shape">
                    <use fill="#3475F2" fill-rule="evenodd" xlink:href="#path-1"></use>
                    <path stroke="#FFFFFF" stroke-width="1" d="M11.129,12.66 L11.129,12.16 L11.629,12.66 L11.129,12.66 Z M12.129,13.4613333 C12.129,13.3695243 12.0541424,13.2946667 11.9623333,13.2946667 C11.8703834,13.2946667 11.7956667,13.3693318 11.7956667,13.4613333 L11.7956667,11.9933333 L10.3273333,11.9933333 C10.4191424,11.9933333 10.494,11.9184757 10.494,11.8266667 C10.494,11.7348576 10.4191424,11.66 10.3273333,11.66 L11.7956667,11.66 L11.7956667,10.193 C11.7956667,10.284809 11.8705243,10.3596667 11.9623333,10.3596667 C12.0541424,10.3596667 12.129,10.284809 12.129,10.193 L12.129,11.66 L13.5983333,11.66 C13.5065243,11.66 13.4316667,11.7348576 13.4316667,11.8266667 C13.4316667,11.9184757 13.5065243,11.9933333 13.5983333,11.9933333 L11.7956667,11.9933333 Z M7.87505967,13.7986667 L0.333333333,13.7986667 C-0.126846926,13.7986667 -0.5,13.4257713 -0.5,12.9653333 C-0.5,9.10496082 2.67806853,5.96766667 6.58233333,5.96766667 C8.1393217,5.96766667 9.65104886,6.47842202 10.8888409,7.41719316 C11.2380099,7.33214243 11.5981732,7.28866667 11.9635918,7.28866667 C14.4652368,7.28829195 16.5,9.32363513 16.5,11.8263333 C16.5,14.3296638 14.4652877,16.366 11.9636667,16.366 C10.2002779,16.366 8.6234103,15.3465002 7.87505967,13.7986667 Z M6.58233333,6.4 C4.69796595,6.4 3.16333333,4.88460322 3.16333333,3.01766667 C3.16333333,1.14982142 4.69787598,-0.366333333 6.58233333,-0.366333333 C8.46710975,-0.366333333 10.002,1.14980629 10.002,3.01766667 C10.002,4.88461837 8.46701979,6.4 6.58233333,6.4 Z"></path>
                </g>
            </g>
        </g>
    </g>
</svg>