<?xml version="1.0" encoding="UTF-8"?>
<svg width="18px" height="18px" viewBox="0 0 18 18" version="1.1" xmlns="http://www.w3.org/2000/svg" xmlns:xlink="http://www.w3.org/1999/xlink">
    <!-- Generator: Sketch 47.1 (45422) - http://www.bohemiancoding.com/sketch -->
    <title>099</title>
    <desc>Created with Sketch.</desc>
    <defs>
        <path d="M5.62,4.38466667 L4.49966667,4.38466667 C3.94833333,4.38466667 3.49966667,3.936 3.49966667,3.38466667 L3.49966667,1 C3.49966667,0.448666667 3.94833333,0 4.49966667,0 L11.1023333,0 C11.6536667,0 12.1023333,0.448666667 12.1023333,1 L12.1023333,3.38466667 C12.1023333,3.936 11.6536667,4.38466667 11.1023333,4.38466667 L10.3823333,4.38466667 L10.3823333,5.18966667 L13.554,5.18966667 C14.864,5.18966667 15.9296667,6.288 15.9296667,7.63833333 L15.9296667,13.552 C15.9293333,14.902 14.8636667,16 13.5536667,16 L2.44766667,16 C1.13666667,16 0.0703333333,14.902 0.0703333333,13.5523333 L0.0703333333,7.63833333 C0.0703333333,6.288 1.13666667,5.18966667 2.44766667,5.18966667 L5.62,5.18966667 L5.62,4.38466667 Z M8.001,14.241 C9.949,14.241 11.534,12.6053333 11.534,10.595 C11.534,8.585 9.949,6.94933333 8.001,6.94933333 C6.05266667,6.94933333 4.46766667,8.585 4.46766667,10.595 C4.46766667,12.6056667 6.05266667,14.241 8.001,14.241 Z M9.52766667,2.52533333 C9.712,2.52533333 9.861,2.376 9.861,2.192 C9.861,2.008 9.712,1.85866667 9.52766667,1.85866667 L6.075,1.85866667 C5.891,1.85866667 5.74166667,2.008 5.74166667,2.192 C5.74166667,2.376 5.891,2.52533333 6.075,2.52533333 L9.52766667,2.52533333 Z" id="path-1"></path>
    </defs>
    <g id="Page-1" stroke="none" stroke-width="1" fill="none" fill-rule="evenodd">
        <g id="Desktop" transform="translate(-667.000000, -294.000000)" fill-rule="nonzero">
            <g id="099" transform="translate(668.000000, 295.000000)">
                <g id="Combined-Shape">
                    <use fill="#000000" fill-rule="evenodd" xlink:href="#path-1"></use>
                    <path stroke="#FFFFFF" stroke-width="1" d="M3.7603411,4.68966667 C3.30635381,4.43158622 2.99966667,3.94345722 2.99966667,3.38466667 L2.99966667,1 C2.99966667,0.172524292 3.67219096,-0.5 4.49966667,-0.5 L11.1023333,-0.5 C11.929809,-0.5 12.6023333,0.172524292 12.6023333,1 L12.6023333,3.38466667 C12.6023333,3.94345722 12.2956462,4.43158622 11.8416589,4.68966667 L13.554,4.68966667 C15.1436095,4.68966667 16.4296667,6.01521239 16.4296667,7.63833333 L16.4296667,13.5521235 C16.429266,15.1749187 15.1431723,16.5 13.5536667,16.5 L2.44766667,16.5 C0.857245401,16.5 -0.429666667,15.1749701 -0.429666667,13.5523333 L-0.429666667,7.63833333 C-0.429666667,6.01511032 0.857163367,4.68966667 2.44766667,4.68966667 L3.7603411,4.68966667 Z M8.001,13.741 C6.33230824,13.741 4.96766667,12.3328996 4.96766667,10.595 C4.96766667,8.85760036 6.33246976,7.44933333 8.001,7.44933333 C9.66924099,7.44933333 11.034,8.85764659 11.034,10.595 C11.034,12.3326419 9.66928371,13.741 8.001,13.741 Z M9.52766667,2.02533333 L6.075,2.02533333 C6.16714237,2.02533333 6.24166667,2.09985763 6.24166667,2.192 C6.24166667,2.28414237 6.16714237,2.35866667 6.075,2.35866667 L9.52766667,2.35866667 C9.43566517,2.35866667 9.361,2.2839499 9.361,2.192 C9.361,2.1000501 9.43566517,2.02533333 9.52766667,2.02533333 Z"></path>
                </g>
            </g>
        </g>
    </g>
</svg>