<?xml version="1.0" encoding="UTF-8"?>
<svg width="18px" height="18px" viewBox="0 0 18 18" version="1.1" xmlns="http://www.w3.org/2000/svg" xmlns:xlink="http://www.w3.org/1999/xlink">
    <!-- Generator: Sketch 47.1 (45422) - http://www.bohemiancoding.com/sketch -->
    <title>Shape Copy 5</title>
    <desc>Created with Sketch.</desc>
    <defs></defs>
    <g id="Page-1" stroke="none" stroke-width="1" fill="none" fill-rule="evenodd">
        <g id="Desktop" transform="translate(-667.000000, -602.000000)" stroke="#FFFFFF" fill-rule="nonzero" fill="#F8E71C">
            <g id="Group-Copy-5" transform="translate(655.000000, 600.000000)">
                <path d="M25.73761,18.9999786 C25.6712765,18.9999786 25.6046096,18.978995 25.5472761,18.9370278 L20.9992629,15.6167263 L16.4515831,18.9370278 C16.3352494,19.0227108 16.180249,19.0206124 16.0652486,18.9328311 C15.9505816,18.8453996 15.9009148,18.69152 15.9422483,18.5488316 L17.5462529,12.9843364 L13.1319068,9.47203505 C13.0189064,9.38215539 12.972573,9.22687691 13.0162398,9.08523776 C13.0602399,8.9435986 13.1845736,8.84672441 13.326574,8.84357688 L18.8649234,8.72571911 L20.6845954,3.23466635 C20.7312622,3.09407638 20.8575959,3 20.9992629,3 C21.14093,3 21.267597,3.0944261 21.3139305,3.23466635 L23.1342691,8.72571911 L28.6732852,8.84357688 C28.8152856,8.84672441 28.9396193,8.9435986 28.9836194,9.08523776 C29.0276196,9.22687691 28.9809528,9.38215539 28.8679524,9.47203505 L24.4529396,12.9846861 L26.0566109,18.5491814 C26.0976111,18.69152 26.0486109,18.8457493 25.9336106,18.9331809 C25.8752771,18.9779458 25.8062769,18.9999786 25.73761,18.9999786 Z" id="Shape-Copy-5"></path>
            </g>
        </g>
    </g>
</svg>